<svg width="15" height="15" viewBox="0 0 15 15" fill="none" xmlns="http://www.w3.org/2000/svg">
<g  clip-path="url(#clip0)">
<path d="M3.62065 7.0885L10.5586 0.169747C10.7859 -0.0568047 11.1539 -0.0564238 11.3809 0.170919C11.6076 0.398233 11.607 0.766464 11.3797 0.993191L4.85472 7.50015L11.3799 14.0071C11.6072 14.2338 11.6078 14.6018 11.3811 14.8292C11.2673 14.9431 11.1183 15.0001 10.9693 15.0001C10.8206 15.0001 10.6722 14.9435 10.5586 14.8303L3.62065 7.91177C3.51117 7.80284 3.44974 7.6546 3.44974 7.50015C3.44974 7.3457 3.51135 7.19763 3.62065 7.0885Z" fill="#fff"/>
</g>
<defs>
<clipPath id="clip0">
<rect width="15" height="15" fill="white" transform="matrix(-1 0 0 1 15 0)"/>
</clipPath>
</defs>
</svg>
